<svg xmlns="http://www.w3.org/2000/svg" viewBox="-14256 -16463 100 100">
  <defs>
    <style>
      .cls-1 {
        fill: #fff;
      }

      .cls-2 {
        fill: #2380fe;
      }
    </style>
  </defs>
  <g id="Group_2311" data-name="Group 2311" transform="translate(-14256 -16463)">
    <rect id="Rectangle_1295" data-name="Rectangle 1295" class="cls-1" width="100" height="100"/>
    <g id="Group_2296" data-name="Group 2296">
      <g id="Group_2290" data-name="Group 2290">
        <path id="Path_739" data-name="Path 739" class="cls-2" d="M21.8,74.4A10.6,10.6,0,0,1,13,57.9h0A10.595,10.595,0,1,1,30.6,69.7,10.409,10.409,0,0,1,21.8,74.4ZM15.7,59.7a7.419,7.419,0,1,0,10.3-2,7.41,7.41,0,0,0-10.3,2Z"/>
      </g>
      <g id="Group_2291" data-name="Group 2291">
        <path id="Path_740" data-name="Path 740" class="cls-2" d="M50,27.9a10.6,10.6,0,0,1-8.8-16.5A11.045,11.045,0,0,1,48,6.9,10.61,10.61,0,0,1,58.9,23.2,10.966,10.966,0,0,1,50,27.9Zm0-18a6.15,6.15,0,0,0-1.4.1,7.6,7.6,0,0,0-4.7,3.1h0a7.142,7.142,0,0,0-1.1,5.5,7.6,7.6,0,0,0,3.1,4.7A7.419,7.419,0,0,0,54.2,11,8.769,8.769,0,0,0,50,9.9Z"/>
      </g>
      <g id="Group_2292" data-name="Group 2292">
        <path id="Path_741" data-name="Path 741" class="cls-2" d="M83.3,50.8l-3.2-.3a23.484,23.484,0,0,0,.1-2.6A30.169,30.169,0,0,0,62.7,20.5l1.4-2.9A33.591,33.591,0,0,1,83.5,47.9C83.5,48.8,83.4,49.8,83.3,50.8Z"/>
      </g>
      <g id="Group_2293" data-name="Group 2293">
        <path id="Path_742" data-name="Path 742" class="cls-2" d="M50,81.4a32.356,32.356,0,0,1-19.7-6.5l1.9-2.6a30.214,30.214,0,0,0,35.6,0l1.9,2.6A32.356,32.356,0,0,1,50,81.4Z"/>
      </g>
      <g id="Group_2294" data-name="Group 2294">
        <path id="Path_743" data-name="Path 743" class="cls-2" d="M16.7,50.8c-.1-1-.1-2-.1-2.9A33.671,33.671,0,0,1,35.9,17.6l1.4,2.9A30.449,30.449,0,0,0,19.8,47.9a23.484,23.484,0,0,0,.1,2.6Z"/>
      </g>
      <g id="Group_2295" data-name="Group 2295">
        <path id="Path_744" data-name="Path 744" class="cls-2" d="M78.1,74.3a10.6,10.6,0,0,1-8.8-16.5h0A10.595,10.595,0,1,1,86.9,69.6,10.409,10.409,0,0,1,78.1,74.3ZM72,59.6a7.419,7.419,0,1,0,10.3-2,7.41,7.41,0,0,0-10.3,2Z"/>
      </g>
    </g>
  </g>
</svg>
