<svg xmlns="http://www.w3.org/2000/svg" viewBox="-16825 -15601 100 100">
  <defs>
    <style>
      .cls-1 {
        fill: #fff;
      }

      .cls-2 {
        fill: #465374;
      }
    </style>
  </defs>
  <g id="Group_2306" data-name="Group 2306" transform="translate(-16825 -15601)">
    <rect id="Rectangle_1300" data-name="Rectangle 1300" class="cls-1" width="100" height="100"/>
    <g id="Group_2305" data-name="Group 2305">
      <path id="Path_748" data-name="Path 748" class="cls-2" d="M29.1,52A13.666,13.666,0,0,0,36,50.2a16.378,16.378,0,0,1-2.1-2.5,10.923,10.923,0,0,1-4.8,1.1,11.2,11.2,0,1,1,3.2-21.9A26.059,26.059,0,0,1,34,24.1a13.477,13.477,0,0,0-5-.9,14.382,14.382,0,0,0-7.1,26.9,20.379,20.379,0,0,0-13.1,19v7.4h13V73.3H12V69.1A17.157,17.157,0,0,1,29.1,52Z"/>
      <path id="Path_749" data-name="Path 749" class="cls-2" d="M70.9,52A13.666,13.666,0,0,1,64,50.2a16.378,16.378,0,0,0,2.1-2.5,10.923,10.923,0,0,0,4.8,1.1,11.2,11.2,0,1,0-3.2-21.9A26.06,26.06,0,0,0,66,24.1a13.477,13.477,0,0,1,5-.9,14.382,14.382,0,0,1,7.1,26.9A20.447,20.447,0,0,1,91.4,69.2v7.4h-13V73.4H88V69.2A17.178,17.178,0,0,0,70.9,52Z"/>
      <path id="Path_750" data-name="Path 750" class="cls-2" d="M57.3,50.2A15.986,15.986,0,1,0,34,36a15.934,15.934,0,0,0,8.7,14.2A22.909,22.909,0,0,0,27.2,71.8V80H63V77H30.2V71.9a19.8,19.8,0,1,1,39.6-.1v8h3v-8A22.909,22.909,0,0,0,57.3,50.2ZM37,36A13,13,0,1,1,50,49,12.974,12.974,0,0,1,37,36Z"/>
    </g>
  </g>
</svg>
