<svg xmlns="http://www.w3.org/2000/svg" viewBox="-12504 1191 240 172">
  <defs>
    <style>
      .cls-1, .cls-4 {
        fill: #fff;
      }

      .cls-10, .cls-2 {
        fill: none;
      }

      .cls-2 {
        stroke: #f2f2f2;
      }

      .cls-3 {
        fill: #2380fe;
      }

      .cls-4, .cls-5 {
        font-size: 12px;
      }

      .cls-4, .cls-6 {
        font-family: PingFangSC-Regular, PingFang SC;
      }

      .cls-5, .cls-8 {
        fill: #d1d1d1;
      }

      .cls-5 {
        font-family: Helvetica;
      }

      .cls-7 {
        fill: #ededed;
      }

      .cls-9 {
        stroke: none;
      }
    </style>
  </defs>
  <g id="Group_1916" data-name="Group 1916" transform="translate(-13398 323)">
    <rect id="Rectangle_1134" data-name="Rectangle 1134" class="cls-1" width="240" height="160" rx="2" transform="translate(894 868)"/>
    <g id="Rectangle_1135" data-name="Rectangle 1135" class="cls-2" transform="translate(914 908)">
      <rect class="cls-9" width="200" height="120" rx="6"/>
      <rect class="cls-10" x="0.5" y="0.5" width="199" height="119" rx="5.5"/>
    </g>
    <g id="Group_1873" data-name="Group 1873" transform="translate(-108 287)">
      <path id="Path_576" data-name="Path 576" class="cls-3" d="M.773.5H80.227c.151,0,.273.356.273.8V25.7c0,.44-.122.8-.273.8H.773C.622,26.5.5,26.144.5,25.7V1.3C.5.856.622.5.773.5Z" transform="translate(1081.5 726.5)"/>
      <text id="点击上传" class="cls-4" transform="translate(1098 745)"><tspan x="0" y="0">点击上传</tspan></text>
    </g>
    <text id="JPG_JPGE_PNG" data-name="JPG、JPGE、PNG" class="cls-5" transform="translate(962 987)"><tspan x="0" y="0">JPG</tspan><tspan class="cls-6" y="0">、</tspan><tspan y="0">JPGE</tspan><tspan class="cls-6" y="0">、</tspan><tspan y="0">PNG</tspan></text>
    <g id="Group_1874" data-name="Group 1874" transform="translate(996 928)">
      <g id="Group_1839" data-name="Group 1839">
        <g id="Group_1838" data-name="Group 1838">
          <path id="Path_640" data-name="Path 640" class="cls-7" d="M15.7,43.2H3a3.009,3.009,0,0,1-3-3V3A3.009,3.009,0,0,1,3,0H25.1l2.6,8.7,8.2,1.8V39.3a4.012,4.012,0,0,1-4,4H15.7Z"/>
        </g>
      </g>
      <circle id="Ellipse_492" data-name="Ellipse 492" class="cls-8" cx="1.2" cy="1.2" r="1.2" transform="translate(4.8 14.9)"/>
      <path id="Path_641" data-name="Path 641" class="cls-8" d="M30.3,16.8H9.5a.684.684,0,0,1-.7-.7V16a.684.684,0,0,1,.7-.7H30.3a.684.684,0,0,1,.7.7v.1A.684.684,0,0,1,30.3,16.8Z"/>
      <circle id="Ellipse_493" data-name="Ellipse 493" class="cls-8" cx="1.2" cy="1.2" r="1.2" transform="translate(4.8 22.3)"/>
      <path id="Path_642" data-name="Path 642" class="cls-8" d="M30.3,24.2H9.5a.684.684,0,0,1-.7-.7v-.1a.684.684,0,0,1,.7-.7H30.3a.684.684,0,0,1,.7.7v.1A.684.684,0,0,1,30.3,24.2Z"/>
      <circle id="Ellipse_494" data-name="Ellipse 494" class="cls-8" cx="1.2" cy="1.2" r="1.2" transform="translate(4.8 31.5)"/>
      <path id="Path_643" data-name="Path 643" class="cls-8" d="M30.3,33.4H9.5a.684.684,0,0,1-.7-.7v-.1a.684.684,0,0,1,.7-.7H30.3a.684.684,0,0,1,.7.7v.1A.684.684,0,0,1,30.3,33.4Z"/>
      <path id="Path_644" data-name="Path 644" class="cls-8" d="M25.2,0,35.9,10.5h-7a3.8,3.8,0,0,1-3.8-3.8V0Z"/>
    </g>
  </g>
</svg>
