<svg id="Group_2317" data-name="Group 2317" xmlns="http://www.w3.org/2000/svg" viewBox="-18844 -16448 160 150">
  <defs>
    <style>
      .cls-1 {
        fill: #fff;
        opacity: 0;
      }

      .cls-2, .cls-3, .cls-4 {
        fill: none;
      }

      .cls-2, .cls-3 {
        stroke: #2380fe;
        stroke-miterlimit: 10;
      }

      .cls-2 {
        stroke-linecap: round;
        stroke-linejoin: round;
        stroke-width: 4.5px;
      }

      .cls-3 {
        stroke-width: 0.5px;
      }

      .cls-5 {
        fill: #2380fe;
      }
    </style>
  </defs>
  <rect id="Rectangle_1301" data-name="Rectangle 1301" class="cls-1" width="160" height="150" transform="translate(-18844 -16448)"/>
  <g id="Group_2314" data-name="Group 2314" transform="translate(-18831 -16416)">
    <path id="Path_181" data-name="Path 181" class="cls-2" d="M126,22.5l-40,36L41.2,27.8,7,62V96H126V22.5"/>
    <line id="Line_56" data-name="Line 56" class="cls-3" y1="37.7" transform="translate(85.2 58.8)"/>
    <g id="Group_700" data-name="Group 700">
      <path id="Path_182" data-name="Path 182" class="cls-4" d="M41.5,4a4.951,4.951,0,0,0-5,5c0,.4.1.8.1,1.2l3.3-3.3a2.283,2.283,0,0,1,2.9-.3l3.7,2.6V9A4.951,4.951,0,0,0,41.5,4Z"/>
      <path id="Path_183" data-name="Path 183" class="cls-4" d="M2,43a4.951,4.951,0,0,0,5,5,4.951,4.951,0,0,0,5-5,4.529,4.529,0,0,0-.3-1.6L10,43.1,6.8,39.9l1.7-1.7A6.8,6.8,0,0,0,7,38,4.951,4.951,0,0,0,2,43Z"/>
      <path id="Path_184" data-name="Path 184" class="cls-4" d="M82.1,33.7l4,2.7,3.4-3.1A5.6,5.6,0,0,0,86,32,5.22,5.22,0,0,0,82.1,33.7Z"/>
      <path id="Path_185" data-name="Path 185" class="cls-4" d="M85,41.1,80.5,38a5.512,5.512,0,0,0,11-.5l-3.7,3.4A2.268,2.268,0,0,1,85,41.1Z"/>
      <path id="Path_186" data-name="Path 186" class="cls-4" d="M39.6,13.6a5.847,5.847,0,0,0,1.9.4,4.678,4.678,0,0,0,2.8-.9l-2.5-1.7Z"/>
      <path id="Path_187" data-name="Path 187" class="cls-5" d="M48.3,10.5A6.288,6.288,0,0,1,46,14.3L78.5,36.7a8.093,8.093,0,0,1,1.9-4.2Z"/>
      <path id="Path_188" data-name="Path 188" class="cls-5" d="M35.1,11.8l-25,25A7.082,7.082,0,0,1,13.3,40L38.1,15.2A7.534,7.534,0,0,1,35.1,11.8Z"/>
      <path id="Path_189" data-name="Path 189" class="cls-5" d="M127.9,1.5a2.332,2.332,0,0,0-3.2-.2L91,31.9a6.777,6.777,0,0,1,2.3,4L127.7,4.7A2.162,2.162,0,0,0,127.9,1.5Z"/>
      <path id="Path_190" data-name="Path 190" class="cls-5" d="M41.5,2a6.957,6.957,0,0,0-7,7,6.71,6.71,0,0,0,.6,2.8,6.89,6.89,0,0,0,3,3.3,6.833,6.833,0,0,0,7.9-.8,6.529,6.529,0,0,0,2.3-3.9,7.719,7.719,0,0,0,.2-1.5A6.936,6.936,0,0,0,41.5,2Zm2.8,11.1a5.467,5.467,0,0,1-2.8.9,4.058,4.058,0,0,1-1.9-.4,5.2,5.2,0,0,1-2.9-3.4A4.869,4.869,0,0,1,36.6,9a5,5,0,0,1,10,0v.2A5.3,5.3,0,0,1,44.3,13.1Z"/>
      <path id="Path_191" data-name="Path 191" class="cls-5" d="M13.3,39.9a7.082,7.082,0,0,0-3.2-3.2A7.83,7.83,0,0,0,7,36,7,7,0,0,0,7,50a6.957,6.957,0,0,0,7-7A7.83,7.83,0,0,0,13.3,39.9ZM7,48A5,5,0,0,1,7,38a4.529,4.529,0,0,1,1.6.3,5.092,5.092,0,0,1,3.2,3.2,4.146,4.146,0,0,1,.3,1.6A5.083,5.083,0,0,1,7,48Z"/>
      <path id="Path_192" data-name="Path 192" class="cls-5" d="M93.3,35.9a7.7,7.7,0,0,0-2.3-4A7.392,7.392,0,0,0,86,30a7.574,7.574,0,0,0-7.5,6.7v.8a7.5,7.5,0,0,0,15,0A7.772,7.772,0,0,0,93.3,35.9ZM86,43a5.61,5.61,0,0,1-5.5-5v-.5a5.121,5.121,0,0,1,1.6-3.8A5.613,5.613,0,0,1,86,32a5.39,5.39,0,0,1,3.5,1.3,5.468,5.468,0,0,1,2,4.2h0A5.549,5.549,0,0,1,86,43Z"/>
    </g>
    <g id="Group_701" data-name="Group 701">
      <path id="Path_193" data-name="Path 193" class="cls-5" d="M127.5,10.5A1.538,1.538,0,0,1,126,9V3h-6a1.538,1.538,0,0,1-1.5-1.5A1.538,1.538,0,0,1,120,0h7.5A1.538,1.538,0,0,1,129,1.5V9A1.538,1.538,0,0,1,127.5,10.5Z"/>
    </g>
    <line id="Line_57" data-name="Line 57" class="cls-3" y1="67.4" transform="translate(41.8 28.8)"/>
  </g>
</svg>
