<svg xmlns="http://www.w3.org/2000/svg" viewBox="-18421 19147 127.346 92.354">
  <defs>
    <style>
      .cls-1 {
        fill: #ffd95f;
      }

      .cls-2 {
        fill: #f9c73d;
      }

      .cls-3 {
        fill: #1245ff;
      }

      .cls-4 {
        fill: #238afe;
      }

      .cls-5, .cls-6 {
        fill: none;
        stroke: #ffd629;
        stroke-linecap: round;
        stroke-linejoin: round;
        stroke-miterlimit: 10;
      }

      .cls-5 {
        stroke-width: 3.105px;
      }

      .cls-6 {
        stroke-width: 4.14px;
      }

      .cls-7 {
        fill: #fff;
      }

      .cls-8 {
        fill: #8dc6ff;
      }
    </style>
  </defs>
  <g id="Group_2390" data-name="Group 2390" transform="translate(-18421 19147)">
    <circle id="Ellipse_496" data-name="Ellipse 496" class="cls-1" cx="41.673" cy="41.673" r="41.673" transform="translate(22 0)"/>
    <circle id="Ellipse_497" data-name="Ellipse 497" class="cls-2" cx="35.256" cy="35.256" r="35.256" transform="translate(28.416 6.417)"/>
    <g id="Group_2387" data-name="Group 2387" transform="translate(0 66.916)">
      <g id="Group_2384" data-name="Group 2384">
        <g id="Group_2383" data-name="Group 2383">
          <path id="Path_757" data-name="Path 757" class="cls-3" d="M9.237,107.874C6.135,111.541,3.1,115.137,0,118.592a139.538,139.538,0,0,0,44,0V94.9a139.538,139.538,0,0,1-44,0C3.032,99.342,6.135,103.644,9.237,107.874Z" transform="translate(0 -94.9)"/>
        </g>
      </g>
      <g id="Group_2386" data-name="Group 2386" transform="translate(83.346)">
        <g id="Group_2385" data-name="Group 2385">
          <path id="Path_758" data-name="Path 758" class="cls-3" d="M152.963,107.874c3.1,3.667,6.135,7.263,9.237,10.718a139.538,139.538,0,0,1-44,0V94.9a139.538,139.538,0,0,0,44,0C159.168,99.342,156.065,103.644,152.963,107.874Z" transform="translate(-118.2 -94.9)"/>
        </g>
      </g>
    </g>
    <path id="Path_759" data-name="Path 759" class="cls-4" d="M115.489,111.292H28.9l.776-3.1a36.669,36.669,0,0,0,0-17.487L28.9,87.6h86.589l-.776,3.1a36.669,36.669,0,0,0,0,17.487Z" transform="translate(-8.522 -25.831)"/>
    <line id="Line_123" data-name="Line 123" class="cls-5" y2="7.686" transform="translate(14.596 41.038)"/>
    <line id="Line_124" data-name="Line 124" class="cls-5" x2="7.756" transform="translate(10.718 44.916)"/>
    <line id="Line_125" data-name="Line 125" class="cls-5" y2="7.756" transform="translate(107.884 10.929)"/>
    <line id="Line_126" data-name="Line 126" class="cls-5" x2="7.686" transform="translate(104.006 14.808)"/>
    <line id="Line_127" data-name="Line 127" class="cls-6" y2="11.635" transform="translate(8.744 18.686)"/>
    <line id="Line_128" data-name="Line 128" class="cls-6" x2="11.705" transform="translate(2.891 24.538)"/>
    <g id="Group_2388" data-name="Group 2388" transform="translate(32.224 21.647)">
      <path id="Path_760" data-name="Path 760" class="cls-7" d="M72.7,41.7l4.231-.282v.987l-4.231.282Zm4.16-11-.917,3.737H77l-1.058,5.218h.917v.987H72.841l.987-4.231H72.771l1.41-5.711Zm.564,7.474,2.186-2.468-1.128-1.34h-1.2l1.34-3.6h2.75L80.95,31.9h3.526v1.833l-1.833,1.974,2.045,2.468H81.726l-.635-.776-.705.776Zm.071.494,7.192.917v1.128L77.495,39.8Zm0,2.045,7.192.917v1.128l-7.192-.917Zm3.1-7.968-.141.282.705.846,1.058-1.2H80.6Z" transform="translate(-53.662 -30.7)"/>
      <path id="Path_761" data-name="Path 761" class="cls-7" d="M98.527,30.771v2.75h3.667v.917H98.527v3.244h3.385v.987H98.527v2.962h4.16v.987H90.7v-.987h4.865V38.668H91.9v-.987h3.667V34.437H93.8l-.282,2.186h-2.75l.705-5.147h2.75l-.282,1.974h1.622V30.7h2.962Z" transform="translate(-58.969 -30.7)"/>
      <path id="Path_762" data-name="Path 762" class="cls-7" d="M49.014,52.3v2.327h.776v.987h-.776V59.14l.776-.212v.987l-.776.212v2.962a1.291,1.291,0,0,1-1.41,1.2H45.771V63.37h.282a.4.4,0,0,0,.423-.353V60.761l-.776.212v-.987l.776-.212v-4.16H45.7v-.987h.776V52.3Zm4.513,0-.564,2.4h4.724v.917h-1.2v1.833h1.128v.987H56.488v1.833h1.128v.987H56.488v1.833h1.2v.987H53.033v.212H50.565V57.024H49.79L50.847,52.3Zm-.494,5.218h1.058v-1.9H53.033Zm0,2.82h1.058v-1.9H53.033Zm0,2.82h1.058V61.326H53.033Zm3.385-10.788L56.77,54.2H54.3l-.353-1.833Z" transform="translate(-45.7 -37.069)"/>
      <path id="Path_763" data-name="Path 763" class="cls-7" d="M71.95,52.4v1.128h3.737v.987H66.732v9.872H63.7V53.528h5.147V52.4Z" transform="translate(-51.008 -37.099)"/>
      <path id="Path_764" data-name="Path 764" class="cls-7" d="M81.7,63.3l4.513-.282v.987l-4.513.282Zm4.442-11-.987,3.737h1.128l-1.128,5.218h.987v.987h-4.3L82.9,58.012H81.771L83.251,52.3h2.891Zm.423,5.853,3.526-4.583H86.847V52.512h6.064v1.34l-1.128,1.481,1.974,2.891H91.078l-.705-.987-.776.987H86.565Zm.212.564h6.769V59.7h-1.9v3.6h2.045v.987H86.565V63.3H88.61V59.7h-1.9v-.987Z" transform="translate(-56.316 -37.069)"/>
      <path id="Path_765" data-name="Path 765" class="cls-7" d="M99.7,63.3l4.372-.282v.987l-4.372.282Zm4.372-11-.987,3.737h1.058l-1.128,5.218H104v.987h-4.16l1.058-4.231H99.771l1.481-5.711h2.82Zm.846.282h6.628v4.865a1.236,1.236,0,0,1-1.2,1.2h-2.538V63.37h3.949v.987h-6.769v-6.7h3.385a.333.333,0,0,0,.353-.353V53.569h-3.737v-.987Z" transform="translate(-61.623 -37.069)"/>
      <path id="Path_766" data-name="Path 766" class="cls-7" d="M126.261,52.4l-1.622,3.526,4.936,8.461h-3.032l-3.244-5.5-2.468,5.5H117.8L123.229,52.4Z" transform="translate(-66.961 -37.099)"/>
    </g>
    <g id="Group_2389" data-name="Group 2389" transform="translate(29.404 68.891)">
      <path id="Path_767" data-name="Path 767" class="cls-8" d="M44.238,97.771V99.6h.635v.776h-.635v2.75l.635-.141v.776l-.635.141v2.327a1.04,1.04,0,0,1-1.128.917H41.7v-.776h.212c.141,0,.353-.141.353-.282v-1.763l-.564.141v-.776l.564-.141v-3.244H41.7v-.776h.564V97.7h1.974Zm3.526,0L47.341,99.6h3.667v.776h-.917v1.481h.846v.776h-.846v1.481h.846v.776h-.846v1.481h.917v.776H47.341v.212h-1.9v-5.712h-.564l.846-3.667h2.045Zm-.353,4.09h.776v-1.481h-.776Zm0,2.186h.776v-1.481h-.776Zm0,2.186h.776v-1.481h-.776Zm2.609-8.391.282,1.41H48.4l-.282-1.41Z" transform="translate(-41.7 -97.7)"/>
      <path id="Path_768" data-name="Path 768" class="cls-8" d="M62.146,97.9v.846h2.891v.776h-6.91v7.686H55.8V98.746h4.019V97.9Z" transform="translate(-45.858 -97.759)"/>
      <path id="Path_769" data-name="Path 769" class="cls-8" d="M69.7,106.4l3.526-.212v.776l-3.526.212Zm3.455-8.6-.776,2.891H73.3l-.917,4.09h.776v.776H69.771l.846-3.314H69.7L70.9,97.8Zm.353,4.583,2.75-3.526H73.719v-.917h4.654V99l-.846,1.128,1.551,2.256H76.963l-.564-.776-.635.776H73.508Zm.141.423h5.288v.776H77.456v2.82h1.622v.776h-5.57V106.4h1.622v-2.82H73.649v-.776Z" transform="translate(-49.957 -97.729)"/>
      <path id="Path_770" data-name="Path 770" class="cls-8" d="M83.7,106.4l3.385-.212v.776l-3.385.212Zm3.385-8.6-.776,2.891h.846l-.846,4.09h.776v.776H83.841l.846-3.314h-.846L84.969,97.8Zm.705.212h5.147v3.808a.933.933,0,0,1-.917.917H90.046v3.737h3.032v.776H87.79v-5.218h2.679a.3.3,0,0,0,.282-.282V98.858H87.79v-.846Z" transform="translate(-54.085 -97.729)"/>
      <path id="Path_771" data-name="Path 771" class="cls-8" d="M104.358,97.9l-1.269,2.75,3.808,6.558h-2.327l-2.538-4.3-1.9,4.3H97.8l4.231-9.308Z" transform="translate(-58.243 -97.759)"/>
      <path id="Path_772" data-name="Path 772" class="cls-8" d="M117.553,100.932v.494h3.173v.776h-3.173v.705h3.526v.776h-1.2v.705h1.058v.776h-1.058v1.269a.933.933,0,0,1-.917.917h-2.327v-.776h.705a.3.3,0,0,0,.282-.282v-1.269h-5.641v-.705h5.641v-.705h-5.853v-.776H115.3v-.705h-3.173v-.776H115.3v-.494h2.256Zm-5.853-.212.494-2.82h1.974l-.071.494h2.327v.776H116l.282,1.551h-1.9l-.282-1.551h-.141l-.282,1.551Zm3.385,4.724.494,1.34h-2.327l-.494-1.34Zm1.2-4.724.494-2.82h1.974l-.071.494h2.327v.776h-.353l.212,1.551h-1.9l-.212-1.551h-.212l-.282,1.551Z" transform="translate(-62.341 -97.759)"/>
      <path id="Path_773" data-name="Path 773" class="cls-8" d="M125.7,106.4l3.032-.212v.776l-3.032.212Zm2.962-8.6-.705,2.891h.776l-.776,4.09h.705v.776h-2.891l.705-3.314H125.7l.987-4.442Zm.564.141h5.359l-.705,2.962h1.2l-1.481,4.09,1.41,2.256h-1.833l-.282-.423-.141.423h-1.763l.776-2.186-.564-.917-.353,3.032h-1.763L130,98.717H129.3v-.776Zm2.538.776-.353,2.962.987,1.481.564-1.551h-1.058l.705-2.962h-.846Z" transform="translate(-66.47 -97.729)"/>
    </g>
  </g>
</svg>
