<svg xmlns="http://www.w3.org/2000/svg" viewBox="-16938 -16180 102.156 26.016">
  <defs>
    <style>
      .cls-1 {
        fill: #3c4649;
      }

      .cls-2 {
        fill: #238afe;
      }
    </style>
  </defs>
  <g id="Group_2253" data-name="Group 2253" transform="translate(-16938 -16180)">
    <path id="Path_692" data-name="Path 692" class="cls-1" d="M221.7,48.731h5.561v2.586a6.409,6.409,0,0,1,2.178-2.158,5.831,5.831,0,0,1,3.014-.758h.486a3.679,3.679,0,0,1,.6.058v5.328a5.266,5.266,0,0,0-2.392-.544,3.6,3.6,0,0,0-2.9,1.147,5.139,5.139,0,0,0-.972,3.364v6.766h-5.561V48.731Z" transform="translate(-178.593 -38.989)"/>
    <path id="Path_693" data-name="Path 693" class="cls-1" d="M300.961,50.1V65.869H295.4V50.1Z" transform="translate(-237.963 -40.359)"/>
    <path id="Path_694" data-name="Path 694" class="cls-1" d="M353,53.28a5.158,5.158,0,0,0-2.917-.992,4.261,4.261,0,0,0-1.5.272,3.392,3.392,0,0,0-1.206.778,3.484,3.484,0,0,0-.817,1.206,3.962,3.962,0,0,0-.292,1.556,3.835,3.835,0,0,0,.292,1.517,3.947,3.947,0,0,0,.8,1.206,3.392,3.392,0,0,0,1.206.778,4.288,4.288,0,0,0,1.517.272A4.547,4.547,0,0,0,353,58.8v4.744a9.768,9.768,0,0,1-3.908.894,9.175,9.175,0,0,1-3.267-.583,8.591,8.591,0,0,1-2.742-1.672,7.955,7.955,0,0,1-2.586-6.008,8.533,8.533,0,0,1,.681-3.422,8.11,8.11,0,0,1,4.628-4.433,9.271,9.271,0,0,1,3.461-.622,8.377,8.377,0,0,1,3.753.856V53.28Z" transform="translate(-274.294 -38.425)"/>
    <path id="Path_695" data-name="Path 695" class="cls-1" d="M430.661,0V15.438l5.833-5.7h7.641l-7.894,7.291L444.6,25.51h-7.816l-6.125-6.436V25.51H425.1V0Z" transform="translate(-342.444)"/>
    <path id="Path_696" data-name="Path 696" class="cls-1" d="M117.6,12h8.983a6.881,6.881,0,0,1,4.861,1.536,5.751,5.751,0,0,1,1.653,4.433,6.089,6.089,0,0,1-.622,2.9,5.264,5.264,0,0,1-1.925,1.944,6.792,6.792,0,0,1,2.2.758,4.891,4.891,0,0,1,1.478,1.244,5.054,5.054,0,0,1,.817,1.653,7.986,7.986,0,0,1,.253,1.964,7.2,7.2,0,0,1-.564,2.9,5.984,5.984,0,0,1-1.594,2.119,6.391,6.391,0,0,1-2.508,1.283,11.779,11.779,0,0,1-3.325.428h-9.683V12Zm6.028,9.1h1.108c1.886,0,2.819-.739,2.819-2.236s-.953-2.236-2.819-2.236h-1.108Zm0,9.411h1.322a6.779,6.779,0,0,0,3.267-.583,2.253,2.253,0,0,0,0-3.733,6.779,6.779,0,0,0-3.267-.583h-1.322Z" transform="translate(-94.734 -9.667)"/>
    <rect id="Rectangle_1272" data-name="Rectangle 1272" class="cls-2" width="11.277" height="6.028" transform="translate(57.437 1.303)"/>
    <g id="Group_2253-2" data-name="Group 2253" transform="translate(0 2.333)">
      <path id="Path_697" data-name="Path 697" class="cls-2" d="M19.4,16.686,16.947,12H9.5l6.358,9.527Z" transform="translate(-7.653 -12)"/>
      <path id="Path_698" data-name="Path 698" class="cls-2" d="M20.28,12H16.294l-2.975,4.589a70.657,70.657,0,0,1-5.58,8.05L0,35.2H7.291l5.444-7.564L17.383,35.2h2.9V28.838l-4.2-6.008,4.2-5.93V12Z" transform="translate(0 -12)"/>
    </g>
  </g>
</svg>
