<svg xmlns="http://www.w3.org/2000/svg" viewBox="-14815 10461 20 20">
  <defs>
    <style>
      .cls-1 {
        fill: #ff6161;
      }
    </style>
  </defs>
  <g id="Group_649" data-name="Group 649" transform="translate(-14815 10461)">
    <g id="Group_647" data-name="Group 647">
      <path id="Path_153" data-name="Path 153" class="cls-1" d="M10,1.7A8.3,8.3,0,1,1,1.7,10,8.28,8.28,0,0,1,10,1.7M10,0A10,10,0,1,0,20,10,10.029,10.029,0,0,0,10,0Z"/>
    </g>
    <g id="Group_648" data-name="Group 648">
      <path id="Path_154" data-name="Path 154" class="cls-1" d="M6.8,8.1A6.267,6.267,0,0,1,7,6.5a2.286,2.286,0,0,1,.7-1,2.384,2.384,0,0,1,1.1-.6A5.019,5.019,0,0,1,10,4.7a3.3,3.3,0,0,1,2.2.8,2.583,2.583,0,0,1,.9,2.1,4.253,4.253,0,0,1-.2,1.1,7.742,7.742,0,0,1-1,1.2l-1,1a1.612,1.612,0,0,0-.4.7,3.42,3.42,0,0,0-.1,1.1H9.3a4.888,4.888,0,0,1,.1-1.3,2.01,2.01,0,0,1,.4-.8c.2-.2.5-.6.9-1.1.5-.5.7-.8.9-1a2.151,2.151,0,0,0,.2-1,1.606,1.606,0,0,0-.5-1.1A1.375,1.375,0,0,0,10,5.8c-1.3,0-1.9.8-1.9,2.3Zm3.8,7.2H9.2V13.8h1.4v1.5Z"/>
    </g>
  </g>
</svg>
